# xmcd
#
# Track frame offsets: 
#        150
#        10887
#        23035
#        37545
#        46855
#        57280
#        68205
#        77979
#        87192
#        104612
#        115867
#        128180
#        139682
#        152192
#
# Disc length: 2156 seconds
#
# Revision: 2
# Processed by: cddbd v1.5.2PL0 Copyright (c) Steve Scherf et al.
# Submitted via: ExactAudioCopyFreeDBPlugin 1.0
#
DISCID=ae086a0e
DTITLE=Various Artist - Great American Train Songs [Green Hill Produc
DTITLE=tions]
DYEAR=2003
DGENRE=Trains
TTITLE0=John D. Loudermilk - Blue Train (On the Heartbreak Line)
TTITLE1=Eddy Arnold - Casey Jones
TTITLE2=Dolly Parton - Heartbreak Express
TTITLE3=Floyd Cramer - Chattanooga Choo Choo
TTITLE4=Roger Miller - Engine, Engine #9
TTITLE5=Elvis Presley - Mystery Train
TTITLE6=Johnny Cash - Rock Island Line
TTITLE7=Chet Atkins - Freight Train
TTITLE8=Steve Goodman - City of New Orleans
TTITLE9=The Limeliters - Midnight Special
TTITLE10=Willie Nelson - Wabash Cannon Ball
TTITLE11=Bill Monroe - Orange Blossom Special
TTITLE12=Hank Snow - The Golden Rocket
TTITLE13=Jim Reeves - Waitin' for a Train
EXTD=
EXTT0=
EXTT1=
EXTT2=
EXTT3=
EXTT4=
EXTT5=
EXTT6=
EXTT7=
EXTT8=
EXTT9=
EXTT10=
EXTT11=
EXTT12=
EXTT13=
PLAYORDER=
